<svg width="299" height="38" viewBox="0 0 299 38" fill="none" xmlns="http://www.w3.org/2000/svg">
<path d="M0.648438 6.74219C6.41406 6.97656 13.125 6.21094 20.7812 4.44531L21.4844 11.3359L7.70312 10.9844L7.89062 20.1719L14.5938 19.1172L14.7812 22.6328L7.89062 22.6562L8.26562 35.1953L0.648438 37.3047C1.74219 31.6016 2.28906 25.9453 2.28906 20.3359C2.28906 16.5547 1.74219 12.0234 0.648438 6.74219ZM28.5156 1.16406C26.9844 11.6172 26.2188 22.3203 26.2188 33.2734L21.2734 34L23.0312 3.625L28.5156 1.16406ZM42.4844 18.4375V18.3906C42.5 18.2656 42.5078 18.1484 42.5078 18.0391C42.5078 16.2891 41.625 15.3125 39.8594 15.1094C39.7031 15.0938 39.5469 15.0859 39.3906 15.0859C37.6562 15.0859 35.8672 16.1562 34.0234 18.2969L30.8594 13.375C34.9219 11.3281 38.2031 10.3047 40.7031 10.3047C41.0312 10.3047 41.3594 10.3203 41.6875 10.3516C44.5312 10.6172 46.0703 12.7422 46.3047 16.7266L46.3984 34.0234C45.6016 33.4609 44.5156 33.1797 43.1406 33.1797C42.1719 33.1797 41.2891 33.2891 40.4922 33.5078C40.5859 32.8359 40.6797 32.1875 40.7734 31.5625C38.3516 32.2031 36.3984 32.5234 34.9141 32.5234C34.3047 32.5234 33.7734 32.4688 33.3203 32.3594C31.4141 31.9219 30.1094 30.6328 29.4062 28.4922C29.2188 27.9297 29.125 27.3906 29.125 26.875C29.125 25.3906 29.875 24.0391 31.375 22.8203C33.3125 21.2734 37.0156 19.8125 42.4844 18.4375ZM41.9688 27.5547C42.2812 24.8047 42.5312 22.4609 42.7188 20.5234C38.0938 22.5547 35.4297 24.1875 34.7266 25.4219C34.4609 25.8906 34.3281 26.3125 34.3281 26.6875C34.3281 27.4062 34.8125 27.9609 35.7812 28.3516C36.1562 28.5078 36.625 28.5859 37.1875 28.5859C38.375 28.5859 39.9688 28.2422 41.9688 27.5547ZM47.2656 11.0547C49.1562 10.8047 51.1562 10.0938 53.2656 8.92188L54.3438 12.1094C55.8438 10.5156 57.4062 9.71875 59.0312 9.71875C59.4688 9.71875 59.9062 9.77344 60.3438 9.88281C62.4531 10.4141 63.9219 12.3906 64.75 15.8125C66.4062 13.3438 68.3281 11.7812 70.5156 11.125C71.3125 10.8906 72.0469 10.7734 72.7188 10.7734C73.8906 10.7734 74.8906 11.125 75.7188 11.8281C77 12.9531 77.7344 14.4297 77.9219 16.2578C77.9375 16.5078 77.9453 16.8125 77.9453 17.1719C77.9453 19.5781 77.6406 25.7734 77.0312 35.7578C74.8281 34.6953 72.5625 34.1719 70.2344 34.1875C72.5938 26.4062 73.8359 21.7812 73.9609 20.3125V19.8672C73.9609 18.6172 73.5156 17.6484 72.625 16.9609C72.2812 16.6953 71.8906 16.5625 71.4531 16.5625C70.6719 16.5625 69.7734 17.0156 68.7578 17.9219C68.0234 18.5781 67.6562 19.5 67.6562 20.6875C67.6562 22.1094 68.1641 23.9062 69.1797 26.0781C67.4609 25.5156 65.7891 25.2344 64.1641 25.2344C63.2266 25.2344 62.3047 25.3281 61.3984 25.5156C62.0859 23.3281 62.4297 21.4609 62.4297 19.9141C62.4297 18.3047 62.0547 17.0469 61.3047 16.1406C60.3203 14.9844 59.4453 14.4062 58.6797 14.4062C58.2891 14.4062 57.9297 14.5469 57.6016 14.8281C56.9141 15.4375 56.5703 16.5859 56.5703 18.2734C56.5703 19.0703 56.6484 19.9844 56.8047 21.0156C57.2734 24.25 58.3359 28.5234 59.9922 33.8359C59.3828 33.7578 58.7734 33.7188 58.1641 33.7188C56.3047 33.7188 54.6094 33.8828 53.0781 34.2109C53.3906 32.0547 53.5469 30.6094 53.5469 29.875C53.5469 24.2656 51.4531 17.9922 47.2656 11.0547ZM85.9609 25.5859C87.6484 28.4766 89.4766 29.9922 91.4453 30.1328C91.4922 30.1484 91.5469 30.1562 91.6094 30.1562C93.4531 30.1562 94.4688 27.875 94.6562 23.3125C97 22.9688 98.9531 22.1016 100.516 20.7109C100.578 22.7266 100.609 24.4766 100.609 25.9609C100.031 28.3359 98.9453 30.3438 97.3516 31.9844C96.1484 33.4375 94.4844 34.1641 92.3594 34.1641C91.3906 34.1641 90.3125 34.0078 89.125 33.6953C85.4062 32.7109 82.625 30.4453 80.7812 26.8984C79.7812 24.9766 79.2812 23.0469 79.2812 21.1094C79.2812 19.4688 79.6484 17.8125 80.3828 16.1406C81.8672 12.6875 84.2812 10.9609 87.625 10.9609C87.8125 10.9609 87.9922 10.9688 88.1641 10.9844C91.7891 11.1719 95.5391 13.3516 99.4141 17.5234C94.1328 18.6172 89.6484 21.3047 85.9609 25.5859ZM92.2188 15.3672C90.8125 14.1328 89.4688 13.5156 88.1875 13.5156C87.5938 13.5156 87.0156 13.6406 86.4531 13.8906C85 14.5781 84.2734 16.6484 84.2734 20.1016C84.2734 20.8984 84.3125 21.7812 84.3906 22.75L92.2188 15.3672ZM115.469 13.0703C114.062 13.4609 112.914 14.9297 112.023 17.4766C110.883 15.0234 109.898 13.6641 109.07 13.3984C108.867 13.3359 108.68 13.3047 108.508 13.3047C107.977 13.3047 107.594 13.6016 107.359 14.1953C107.312 14.2891 107.289 14.3828 107.289 14.4766C107.289 15.3359 108.508 16.8359 110.945 18.9766C113.648 21.3828 115.094 23.8203 115.281 26.2891C115.297 26.5078 115.305 26.7188 115.305 26.9219C115.305 29.1094 114.391 30.8359 112.562 32.1016C111.422 32.8984 110.312 33.2969 109.234 33.2969C108.406 33.2969 107.594 33.0625 106.797 32.5938C103.891 31.1719 101.461 29.0547 99.5078 26.2422C101.367 25.2422 102.703 23.5234 103.516 21.0859C104.859 25.5859 106.797 28.25 109.328 29.0781C109.5 29.125 109.664 29.1484 109.82 29.1484C110.617 29.1484 111.078 28.6172 111.203 27.5547V27.3906C111.203 26.1094 109.75 24.0703 106.844 21.2734C104.25 18.7734 102.953 16.3906 102.953 14.125C102.953 13.7344 102.992 13.3438 103.07 12.9531C103.586 10.3438 104.828 9.00781 106.797 8.94531H106.938C110.516 8.94531 113.359 10.3203 115.469 13.0703ZM153.977 5.96875C151.508 7.625 149.922 9.63281 149.219 11.9922C147.125 7.82031 144.375 5.73438 140.969 5.73438C136.734 6.67188 134.5 9.91406 134.266 15.4609C134.453 17.4141 135.344 19.2422 136.938 20.9453C138 22.1016 139.297 22.6797 140.828 22.6797C141.578 22.6797 142.375 22.5469 143.219 22.2812C145.797 21.3438 147.383 19.5234 147.977 16.8203L153.742 22.8203C151.398 26.3516 148.102 28.6484 143.852 29.7109C143.18 29.7891 142.523 29.8281 141.883 29.8281C138.898 29.8281 136.156 28.9297 133.656 27.1328C130.609 24.9609 128.734 21.3438 128.031 16.2812C128.047 11.3594 129.234 7.52344 131.594 4.77344C133.953 2.00781 137.141 0.5625 141.156 0.4375C145.859 0.328125 150.133 2.17188 153.977 5.96875ZM166.703 18.4375V18.3906C166.719 18.2656 166.727 18.1484 166.727 18.0391C166.727 16.2891 165.844 15.3125 164.078 15.1094C163.922 15.0938 163.766 15.0859 163.609 15.0859C161.875 15.0859 160.086 16.1562 158.242 18.2969L155.078 13.375C159.141 11.3281 162.422 10.3047 164.922 10.3047C165.25 10.3047 165.578 10.3203 165.906 10.3516C168.75 10.6172 170.289 12.7422 170.523 16.7266L170.617 34.0234C169.82 33.4609 168.734 33.1797 167.359 33.1797C166.391 33.1797 165.508 33.2891 164.711 33.5078C164.805 32.8359 164.898 32.1875 164.992 31.5625C162.57 32.2031 160.617 32.5234 159.133 32.5234C158.523 32.5234 157.992 32.4688 157.539 32.3594C155.633 31.9219 154.328 30.6328 153.625 28.4922C153.438 27.9297 153.344 27.3906 153.344 26.875C153.344 25.3906 154.094 24.0391 155.594 22.8203C157.531 21.2734 161.234 19.8125 166.703 18.4375ZM166.188 27.5547C166.5 24.8047 166.75 22.4609 166.938 20.5234C162.312 22.5547 159.648 24.1875 158.945 25.4219C158.68 25.8906 158.547 26.3125 158.547 26.6875C158.547 27.4062 159.031 27.9609 160 28.3516C160.375 28.5078 160.844 28.5859 161.406 28.5859C162.594 28.5859 164.188 28.2422 166.188 27.5547ZM180.156 1.16406C178.625 11.6172 177.859 22.3203 177.859 33.2734L172.914 34L174.672 3.625L180.156 1.16406ZM198.555 12.9766C197.68 14.0391 196.742 16.0391 195.742 18.9766C194.43 16.3984 192.539 15.0469 190.07 14.9219C188.414 15.1875 187.18 16.0859 186.367 17.6172C185.852 18.5547 185.594 19.5703 185.594 20.6641C185.594 21.3516 185.695 22.0703 185.898 22.8203C186.648 24.9922 188.281 26.1094 190.797 26.1719H191.102C193.164 26.1719 194.195 25.1406 194.195 23.0781V22.8672L199.68 23.9219C198.617 26.75 197.414 28.75 196.07 29.9219C195.023 30.8281 193.5 31.2812 191.5 31.2812C190.891 31.2812 190.234 31.2422 189.531 31.1641C185.75 30.5859 183.289 29.1406 182.148 26.8281C181.273 25.0781 180.836 23.25 180.836 21.3438C180.836 20.7344 180.875 20.125 180.953 19.5156C181.375 16.7656 182.312 14.5781 183.766 12.9531C185.219 11.3281 186.852 10.4531 188.664 10.3281C191.367 9.85938 194.664 10.7422 198.555 12.9766ZM198.531 16C200.516 16.6094 202.984 16.1484 205.938 14.6172C206.094 24.5234 207.234 29.8203 209.359 30.5078C209.859 30.6797 210.32 30.7656 210.742 30.7656C212.117 30.7656 213.078 29.9062 213.625 28.1875C213.734 27.8281 213.789 27.3672 213.789 26.8047C213.789 23.9141 212.242 18.4531 209.148 10.4219C211.789 10.4062 214.125 10.0625 216.156 9.39062C216.594 16.8906 218.977 24.4453 223.305 32.0547C221.336 32.1016 219.242 32.6562 217.023 33.7188L216.672 31.3516C214.641 34.5078 212.578 36.1719 210.484 36.3438C210.234 36.375 209.992 36.3906 209.758 36.3906C207.961 36.3906 206.359 35.7969 204.953 34.6094C203.344 33.2656 201.203 27.0625 198.531 16ZM229.469 1.16406C227.938 11.6172 227.172 22.3203 227.172 33.2734L222.227 34L223.984 3.625L229.469 1.16406ZM243.438 18.4375V18.3906C243.453 18.2656 243.461 18.1484 243.461 18.0391C243.461 16.2891 242.578 15.3125 240.812 15.1094C240.656 15.0938 240.5 15.0859 240.344 15.0859C238.609 15.0859 236.82 16.1562 234.977 18.2969L231.812 13.375C235.875 11.3281 239.156 10.3047 241.656 10.3047C241.984 10.3047 242.312 10.3203 242.641 10.3516C245.484 10.6172 247.023 12.7422 247.258 16.7266L247.352 34.0234C246.555 33.4609 245.469 33.1797 244.094 33.1797C243.125 33.1797 242.242 33.2891 241.445 33.5078C241.539 32.8359 241.633 32.1875 241.727 31.5625C239.305 32.2031 237.352 32.5234 235.867 32.5234C235.258 32.5234 234.727 32.4688 234.273 32.3594C232.367 31.9219 231.062 30.6328 230.359 28.4922C230.172 27.9297 230.078 27.3906 230.078 26.875C230.078 25.3906 230.828 24.0391 232.328 22.8203C234.266 21.2734 237.969 19.8125 243.438 18.4375ZM242.922 27.5547C243.234 24.8047 243.484 22.4609 243.672 20.5234C239.047 22.5547 236.383 24.1875 235.68 25.4219C235.414 25.8906 235.281 26.3125 235.281 26.6875C235.281 27.4062 235.766 27.9609 236.734 28.3516C237.109 28.5078 237.578 28.5859 238.141 28.5859C239.328 28.5859 240.922 28.2422 242.922 27.5547ZM254.031 14.0078L255.156 2.75781C256.672 3.69531 258.781 3.34375 261.484 1.70312L259.211 12.0156C260.773 11.3281 262.367 10.5391 263.992 9.64844L262.727 14.0781L258.391 15.7891L255.648 28.1875C255.492 28.9688 255.414 29.6328 255.414 30.1797C255.414 31.2891 255.734 31.9219 256.375 32.0781C256.438 32.0938 256.508 32.1016 256.586 32.1016C257.461 32.1016 258.391 30.8594 259.375 28.375C259.953 29.9062 261.07 31.0859 262.727 31.9141C259.242 35.1484 256.742 36.7656 255.227 36.7656C255.195 36.7656 255.164 36.7578 255.133 36.7422C253.602 36.6953 252.484 36.0234 251.781 34.7266C251.359 33.9453 251.148 32.8281 251.148 31.375C251.148 30.4062 251.242 29.2812 251.43 28L253.258 18.1797L248.43 20.4297C248.992 19.3359 249.273 18.3047 249.273 17.3359C249.273 16.6172 249.125 15.9375 248.828 15.2969C250.516 15 252.25 14.5703 254.031 14.0078ZM269.57 20.3125C269.492 20.6875 269.453 21.0547 269.453 21.4141C269.453 22.0859 269.57 22.75 269.805 23.4062C270.164 24.3906 270.773 25.1719 271.633 25.75C272.492 26.3125 273.422 26.6094 274.422 26.6406C274.5 26.6562 274.586 26.6641 274.68 26.6641C275.617 26.6641 276.562 26.4375 277.516 25.9844C278.562 25.5 279.445 24.7812 280.164 23.8281C280.898 22.875 281.367 21.8672 281.57 20.8047C281.648 20.4297 281.688 20.0547 281.688 19.6797C281.688 19.0234 281.57 18.375 281.336 17.7344C280.992 16.75 280.391 15.9688 279.531 15.3906C278.688 14.8125 277.742 14.5078 276.695 14.4766C276.602 14.4609 276.516 14.4531 276.438 14.4531C275.484 14.4531 274.523 14.6875 273.555 15.1562C272.508 15.6406 271.633 16.3594 270.93 17.3125C270.227 18.25 269.773 19.25 269.57 20.3125ZM277.328 29.8984C276.875 29.9609 276.422 29.9922 275.969 29.9922C274.656 29.9922 273.312 29.75 271.938 29.2656C270.078 28.6094 268.492 27.5234 267.18 26.0078C265.883 24.4922 265.023 22.8516 264.602 21.0859C264.414 20.3047 264.32 19.5234 264.32 18.7422C264.32 17.7578 264.469 16.7812 264.766 15.8125C265.281 14.0938 266.25 12.6797 267.672 11.5703C269.109 10.4453 270.719 9.77344 272.5 9.55469C272.969 9.49219 273.438 9.46094 273.906 9.46094C275.25 9.46094 276.609 9.71094 277.984 10.2109C279.828 10.8984 281.391 11.9922 282.672 13.4922C283.953 14.9766 284.812 16.6016 285.25 18.3672C285.422 19.1484 285.508 19.9219 285.508 20.6875C285.508 21.6719 285.359 22.6641 285.062 23.6641C284.516 25.4141 283.523 26.8359 282.086 27.9297C280.648 29.0234 279.062 29.6797 277.328 29.8984ZM289.609 11.0078L289.961 12.9531C290.555 11.6562 291.414 10.7969 292.539 10.375C292.992 10.2188 293.609 10.1406 294.391 10.1406C295.531 10.1406 297 10.3125 298.797 10.6562L297.391 15.9531C296.047 14.1719 294.898 13.2812 293.945 13.2812H293.758C292.758 13.4062 292.016 14.7031 291.531 17.1719L292.984 30.7891L286.773 32.1953C287.07 29.6172 287.219 26.9844 287.219 24.2969C287.219 20.7188 286.719 16.6328 285.719 12.0391L289.609 11.0078Z" fill="white"/>
</svg>
