<svg width="84" height="72" viewBox="0 0 84 72" fill="none" xmlns="http://www.w3.org/2000/svg">
<path d="M58.7715 2C49.4052 2 44.4449 6.33493 41.9768 9.80029C39.5118 6.33493 34.5589 2 25.2122 2C14.0324 2 2 9.14231 2 24.824C2 31.0044 3.39787 35.909 6.67354 41.2246C9.86224 46.3984 16.6148 52.7748 26.7439 60.1774C30.6972 63.0666 34.3389 65.4971 36.698 67.0274C41.2313 69.9683 41.4088 69.9986 41.9565 69.999C41.9842 69.9997 42.0108 70 42.0374 70C42.5554 70 42.9121 69.8416 47.2459 67.0441C49.6065 65.5199 53.2513 63.0986 57.2082 60.2159C67.3497 52.8283 74.1211 46.4387 77.3346 41.225C80.6046 35.9192 82 31.0139 82 24.8243C82 9.14231 69.9591 2 58.7715 2Z" fill="white" stroke="#E15385" stroke-width="4" stroke-linejoin="round"/>
</svg>
